<?xml version="1.0" standalone="no"?>
<!DOCTYPE svg PUBLIC "-//W3C//DTD SVG 20010904//EN"
 "http://www.w3.org/TR/2001/REC-SVG-20010904/DTD/svg10.dtd">
<svg version="1.0" xmlns="http://www.w3.org/2000/svg"
 width="150.000000pt" height="140.000000pt" viewBox="0 0 150.000000 140.000000"
 preserveAspectRatio="xMidYMid meet">

<g transform="translate(0.000000,140.000000) scale(0.100000,-0.100000)"
fill="currentFill" stroke="currentStroke">
<path d="M595 1386 c-164 -38 -257 -88 -371 -201 -131 -130 -191 -262 -201
-441 -17 -311 172 -582 482 -691 74 -26 92 -28 230 -28 132 0 159 3 220 24
128 43 204 90 296 181 93 92 140 170 179 295 28 91 31 250 6 345 -65 244 -250
430 -498 500 -94 27 -260 35 -343 16z m150 -465 c57 -26 70 -44 46 -65 -18
-16 -21 -16 -57 3 -45 24 -119 28 -167 7 -76 -31 -118 -131 -98 -227 15 -66
44 -107 95 -130 56 -25 103 -24 162 6 41 21 62 43 128 135 43 61 82 112 86
115 4 3 47 -36 95 -86 71 -74 84 -93 75 -104 -7 -8 -17 -15 -22 -15 -5 0 -36
29 -69 65 -34 36 -65 65 -69 65 -5 0 -40 -45 -79 -100 -91 -127 -133 -155
-236 -154 -106 0 -182 48 -221 139 -24 57 -23 167 3 226 23 51 83 107 134 125
52 19 148 16 194 -5z"/>
</g>
</svg>
